<svg id="Layer_1" data-name="Layer 1" xmlns="http://www.w3.org/2000/svg" viewBox="0 0 730.2 144.93"><defs><style>.cls-1{fill:#004b49;}.cls-2{fill:#ecb905;}</style></defs><path class="cls-1" d="M694.66,227.87v17.45L663,325a1.17,1.17,0,0,1-1.2.75h-19.1a1.26,1.26,0,0,1-1.12-.52,1,1,0,0,1-.08-1.12l31.41-78.76H642.21c-.81,0-1.22-.46-1.22-1.36V227.87c0-.89.41-1.34,1.22-1.34h51.1A1.19,1.19,0,0,1,694.66,227.87Z" transform="translate(-55.84 -225.17)"/><path class="cls-1" d="M777.12,233.89q-9-8.73-24.9-8.72h-.89a36.92,36.92,0,0,0-13.9,2.49,30.74,30.74,0,0,0-10.67,6.91A31.71,31.71,0,0,0,719.83,245a34.15,34.15,0,0,0-2.47,13.08v3.59q0,15.19,9.47,24.22a33.57,33.57,0,0,0,11.11,6.6,37.4,37.4,0,0,0,12.49,2.11,52.46,52.46,0,0,0,7.59-.54,64.86,64.86,0,0,0,7.14-1.41c-.5,4.51-1.79,8-3.83,10.43s-5.19,3.69-9.39,3.69c-3.81,0-6.52-.61-8.13-1.81a12.3,12.3,0,0,1-3.61-4l-1.65-2.86c-.5-.7-1-.86-1.64-.45l-17,8.27c-.7.28-.9.84-.59,1.64a28,28,0,0,0,5.63,8.65,34.38,34.38,0,0,0,8,6.17,36.77,36.77,0,0,0,9.32,3.67,40.5,40.5,0,0,0,9.7,1.2A42.79,42.79,0,0,0,766.36,325,28.88,28.88,0,0,0,777,318.51a28.52,28.52,0,0,0,6.69-9.91,33.44,33.44,0,0,0,2.33-12.78V259.3Q786.05,242.6,777.12,233.89ZM762,270.5a14.25,14.25,0,0,1-10.37,4.13,13.59,13.59,0,0,1-10.45-4.29,14.59,14.59,0,0,1-4-10.29,13.67,13.67,0,0,1,4.37-10.52,14.7,14.7,0,0,1,10.38-4.07c4.4,0,7.89,1.44,10.43,4.28a14.94,14.94,0,0,1,3.85,10.31A14.09,14.09,0,0,1,762,270.5Z" transform="translate(-55.84 -225.17)"/><path class="cls-2" d="M55.85,276c-.34-26.36,21.35-48.76,48.41-48.81,27.42-.05,49,21.55,49.07,49.15.06,26.17-21.92,48-48,48.42C78.31,325.13,55.39,302.63,55.85,276Zm5.49-.18a43.21,43.21,0,0,0,43.58,43.39c23.37-.09,43-19.73,42.94-42.93a43.26,43.26,0,1,0-86.52-.46Z" transform="translate(-55.84 -225.17)"/><path class="cls-2" d="M139.15,276c0,11.62-12.2,19.32-23.07,14.61a27,27,0,0,1-10.27-7.91c-1.19-1.46-1.66-1-2.66.14-4.65,5.43-10.24,9.23-17.73,9.11a16.22,16.22,0,0,1-15.67-16.51c.21-8.66,7.8-15.93,16.34-15.57,7,.3,12.34,3.86,16.66,9,1.59,1.89,2.31,1.41,3.59-.1,3.81-4.49,8.42-7.7,14.41-8.63A15.71,15.71,0,0,1,139.15,276Zm-5.5,0a10.27,10.27,0,0,0-12.77-10.32c-5.64,1.21-9.33,4.93-12.58,9.31a1.67,1.67,0,0,0,.15,2.27c2.74,3.66,5.84,6.84,10.26,8.48C126.15,288.48,133.63,283.62,133.65,276ZM84.33,286.44c8,.22,13.86-5.26,16.7-9.91a1,1,0,0,0-.06-1.25c-3.42-4.4-7.1-8.45-12.93-9.64a10.57,10.57,0,1,0-3.71,20.8Z" transform="translate(-55.84 -225.17)"/><path class="cls-2" d="M251.54,323.38l-26-96.62c-.23-.6-.56-.93-1-.93H205.84c-.49,0-.86.33-1.05.93l-26,96.62c-.19,1.08.26,1.64,1.34,1.64h17.31c.49,0,.83-.29,1.05-.89l5.71-21h21.93l5.86,21a1,1,0,0,0,1,.89h17.12C251.28,325,251.73,324.46,251.54,323.38ZM209,284.32l6-22.72,6.49,22.72Z" transform="translate(-55.84 -225.17)"/><path class="cls-2" d="M339.25,226.52v67.89c0,10.92-2.93,18.9-8.7,23.89s-14.36,7.55-25.55,7.55a57.09,57.09,0,0,1-14.35-1.66,27.28,27.28,0,0,1-10.84-5.42A24.49,24.49,0,0,1,273,309a39.7,39.7,0,0,1-2.41-14.59V226.52a1.21,1.21,0,0,1,1.38-1.35h17.28a1.2,1.2,0,0,1,1.35,1.35v63.11a20.91,20.91,0,0,0,1.26,8,13.39,13.39,0,0,0,3.25,4.83,10.5,10.5,0,0,0,4.35,2.37,16.09,16.09,0,0,0,4.66.71h1.78q7.06,0,10.32-4.39c2.14-2.88,3.2-6.76,3.2-11.54V226.52a1.21,1.21,0,0,1,1.39-1.35H337.9A1.19,1.19,0,0,1,339.25,226.52Z" transform="translate(-55.84 -225.17)"/><path class="cls-2" d="M424.4,323.21l-12.61-27.83a19.57,19.57,0,0,0,9.29-9.58,23.81,23.81,0,0,0,2-6.5,37.11,37.11,0,0,0,.71-7.49V252.89c0-8.8-2.35-15.56-7.05-20.18s-11.31-6.87-19.7-6.87H365.79c-.71,0-1.05.45-1.05,1.35v96.43c0,.94.34,1.38,1.05,1.38H383.1c.89,0,1.34-.44,1.34-1.38V298.67h7.65l11.71,25.55a1.08,1.08,0,0,0,1.08.78h18.47a1.09,1.09,0,0,0,1-.55A1.48,1.48,0,0,0,424.4,323.21Zm-29.22-44.43c-1.86.15-4,.26-6.41.26h-4.33V245.8h4.33a57,57,0,0,1,7.16.34,10.35,10.35,0,0,1,4.7,1.45,7,7,0,0,1,2.65,3.55,19,19,0,0,1,.82,6.23v9.81a19.34,19.34,0,0,1-1.19,6.75,7.24,7.24,0,0,1-3,3.51A11.22,11.22,0,0,1,395.18,278.78Z" transform="translate(-55.84 -225.17)"/><path class="cls-2" d="M518.7,227.21V295.1c0,10.91-2.89,18.9-8.7,23.88s-14.31,7.56-25.54,7.56a57.62,57.62,0,0,1-14.36-1.66,27.17,27.17,0,0,1-10.83-5.42,24.43,24.43,0,0,1-6.81-9.77,38.88,38.88,0,0,1-2.41-14.59V227.21a1.19,1.19,0,0,1,1.35-1.35h17.28a1.18,1.18,0,0,1,1.34,1.35v63.11a21.69,21.69,0,0,0,1.27,8,13.5,13.5,0,0,0,3.24,4.83,10.94,10.94,0,0,0,4.35,2.37,16.67,16.67,0,0,0,4.67.71h1.81c4.71,0,8.15-1.46,10.29-4.39s3.24-6.76,3.24-11.54V227.21a1.18,1.18,0,0,1,1.34-1.35h17.13A1.18,1.18,0,0,1,518.7,227.21Z" transform="translate(-55.84 -225.17)"/><path class="cls-2" d="M616.27,228V324.4a1.21,1.21,0,0,1-1.35,1.39H598.55a1.38,1.38,0,0,1-.75-.4,1.14,1.14,0,0,1-.47-1V268.8l-16.49,56.08a1.43,1.43,0,0,1-1.23.91H567.75a1.1,1.1,0,0,1-1.23-.91l-15.46-57.1V324.4a1.21,1.21,0,0,1-1.34,1.39H533c-.71,0-1.07-.48-1.07-1.39V228c0-.91.36-1.35,1.07-1.35h21a1.25,1.25,0,0,1,1.35.87l18.19,60.86,20-60.86c0-.59.35-.87,1.07-.87h20.28A1.19,1.19,0,0,1,616.27,228Z" transform="translate(-55.84 -225.17)"/><path class="cls-1" d="M340.84,367.34l-3-6.53h-3.09v6.53h-3.51v-23.2h7.35a5.74,5.74,0,0,1,4.4,1.66,6,6,0,0,1,1.57,4.35v4.7a8.07,8.07,0,0,1-.6,3.07,3.77,3.77,0,0,1-2,2.11l-.67.34,3.25,7Zm-3.14-19.66h-2.94v9.67h2.42a9,9,0,0,0,1.59-.12,2.58,2.58,0,0,0,1.17-.52,2.36,2.36,0,0,0,.94-1.38,7.7,7.7,0,0,0,.18-1.64v-2.43C341.06,348.88,339.94,347.68,337.7,347.68Z" transform="translate(-55.84 -225.17)"/><path class="cls-1" d="M356.43,353.88H363v3.31h-6.6v6.91h8.4v3.24H352.89v-23.2h11.94v3.25h-8.4Z" transform="translate(-55.84 -225.17)"/><path class="cls-1" d="M384.82,347.39h-8.39v6.49H383v3.31h-6.6v10.15h-3.54v-23.2h11.93Z" transform="translate(-55.84 -225.17)"/><path class="cls-1" d="M391.8,367.34v-23.2h3.5v23.2Z" transform="translate(-55.84 -225.17)"/><path class="cls-1" d="M417.69,367.34h-3.55l-6.71-15v15h-3.51v-23.2h3.81L414.14,359V344.14h3.55Z" transform="translate(-55.84 -225.17)"/><path class="cls-1" d="M430,353.88h6.6v3.31H430v6.91h8.39v3.24H426.46v-23.2h11.93v3.25H430Z" transform="translate(-55.84 -225.17)"/><path class="cls-1" d="M456,367.34l-3-6.53H450v6.53h-3.5v-23.2h7.35a5.74,5.74,0,0,1,4.4,1.66,6.08,6.08,0,0,1,1.57,4.35v4.7a8.07,8.07,0,0,1-.6,3.07,3.77,3.77,0,0,1-2,2.11l-.67.34,3.25,7Zm-3.14-19.66H450v9.67h2.43a9,9,0,0,0,1.59-.12,2.58,2.58,0,0,0,1.17-.52,2.3,2.3,0,0,0,.93-1.38,7.12,7.12,0,0,0,.19-1.64v-2.43C456.26,348.88,455.14,347.68,452.9,347.68Z" transform="translate(-55.84 -225.17)"/><path class="cls-1" d="M475.29,356.26v11.08h-3.58V356.26l-5.37-12.12h3.39l3.73,7.27,3.69-7.27h3.4Z" transform="translate(-55.84 -225.17)"/><path class="cls-1" d="M508.2,370.1a18.18,18.18,0,0,1-1.44-1.19,9.68,9.68,0,0,1-1.29-1.46,15.65,15.65,0,0,1-2.13-3.65,22,22,0,0,1-1.6-8.51,22.43,22.43,0,0,1,.41-4.31,22.71,22.71,0,0,1,1.16-4,13,13,0,0,1,.95-1.9c.36-.6.74-1.17,1.14-1.72a14.75,14.75,0,0,1,1.32-1.49c.46-.45.94-.87,1.43-1.27l1.83,2.84-.55.52a12.16,12.16,0,0,0-1,1,15,15,0,0,0-1.58,2.16,15.77,15.77,0,0,0-2.5,8.28,14.93,14.93,0,0,0,1.31,6.12,16.05,16.05,0,0,0,3.73,5.19,2.68,2.68,0,0,0,.3.28,1.67,1.67,0,0,1,.25.28Z" transform="translate(-55.84 -225.17)"/><path class="cls-1" d="M537.63,367.34h-3.25V350.11c0-.1,0-.15-.13-.15a.16.16,0,0,0-.17.11L529,367.34h-2.38l-4.86-17.91a.17.17,0,0,0-.16-.07c-.09,0-.14.05-.14.15v17.83h-3.35v-23.2h4.55l5.11,17,5.52-17h4.37Z" transform="translate(-55.84 -225.17)"/><path class="cls-1" d="M556.24,361.9h-6.53l-1.45,5.44h-3.47l6.19-23.2h4l6.23,23.2h-3.46Zm-5.67-3.21h4.89l-2.54-9Z" transform="translate(-55.84 -225.17)"/><path class="cls-1" d="M583.66,360.62a8.58,8.58,0,0,1-.61,3.48,5.48,5.48,0,0,1-1.68,2.18,6.44,6.44,0,0,1-2.49,1.12,13.86,13.86,0,0,1-3,.31,13.69,13.69,0,0,1-3.28-.35,6,6,0,0,1-2.46-1.19,5.42,5.42,0,0,1-1.55-2.19,9,9,0,0,1-.54-3.36V344.14h3.54v15.29a5.06,5.06,0,0,0,1,3.57,4,4,0,0,0,3,1.1h.45q4.06,0,4.06-4.67V344.14h3.51Z" transform="translate(-55.84 -225.17)"/><path class="cls-1" d="M601.72,367.34l-3-6.53h-3.09v6.53h-3.51v-23.2h7.35a5.74,5.74,0,0,1,4.4,1.66,6,6,0,0,1,1.57,4.35v4.7a8.07,8.07,0,0,1-.6,3.07,3.79,3.79,0,0,1-2,2.11l-.67.34,3.24,7Zm-3.14-19.66h-2.94v9.67h2.42a9,9,0,0,0,1.59-.12,2.58,2.58,0,0,0,1.17-.52,2.36,2.36,0,0,0,.94-1.38,7.7,7.7,0,0,0,.18-1.64v-2.43C601.94,348.88,600.82,347.68,598.58,347.68Z" transform="translate(-55.84 -225.17)"/><path class="cls-1" d="M613.77,367.34v-23.2h3.5v23.2Z" transform="translate(-55.84 -225.17)"/><path class="cls-1" d="M639,347.39h-5.63v19.95h-3.55V347.39h-5.63v-3.25H639Z" transform="translate(-55.84 -225.17)"/><path class="cls-1" d="M645.93,367.34v-23.2h3.5v23.2Z" transform="translate(-55.84 -225.17)"/><path class="cls-1" d="M673.46,360.62a8.4,8.4,0,0,1-.62,3.48,5.39,5.39,0,0,1-1.68,2.18,6.33,6.33,0,0,1-2.48,1.12,13.86,13.86,0,0,1-3,.31,13.69,13.69,0,0,1-3.28-.35,6,6,0,0,1-2.46-1.19,5.42,5.42,0,0,1-1.55-2.19,9,9,0,0,1-.54-3.36V344.14h3.54v15.29a5.06,5.06,0,0,0,1,3.57,4,4,0,0,0,3,1.1h.45q4.07,0,4.06-4.67V344.14h3.51Z" transform="translate(-55.84 -225.17)"/><path class="cls-1" d="M694.16,365a5.1,5.1,0,0,1-2.63,2.15,9.81,9.81,0,0,1-5.54.31,7.92,7.92,0,0,1-2.11-.8,7.59,7.59,0,0,1-1.75-1.32A5.31,5.31,0,0,1,681,363.5l2.83-2.42.19.37a6.18,6.18,0,0,0,1.7,1.88,3.79,3.79,0,0,0,2.36.81,3.52,3.52,0,0,0,2.41-.88,2.89,2.89,0,0,0,1-2.26,2.62,2.62,0,0,0-.34-1.36,3.85,3.85,0,0,0-.87-1,6.46,6.46,0,0,0-1.25-.78c-.48-.22-1-.43-1.49-.64-.78-.3-1.6-.67-2.49-1.11a11.44,11.44,0,0,1-2.4-1.64,5.79,5.79,0,0,1-2.05-4.33,5.44,5.44,0,0,1,.68-2.75,6.33,6.33,0,0,1,1.8-1.95,8.53,8.53,0,0,1,2.46-1.2,9.47,9.47,0,0,1,2.7-.41,6.38,6.38,0,0,1,3.83,1.14,8.13,8.13,0,0,1,2.55,3.15L691.89,350A9.39,9.39,0,0,0,690,348a3.84,3.84,0,0,0-2.33-.72,4.8,4.8,0,0,0-1.16.15,3.61,3.61,0,0,0-1.06.45,2.75,2.75,0,0,0-.78.74,1.72,1.72,0,0,0-.32,1.05,2,2,0,0,0,.52,1.38,5.48,5.48,0,0,0,1.27,1,11.1,11.1,0,0,0,1.62.8c.59.24,1.11.47,1.55.7a20.58,20.58,0,0,1,2.09,1.06,11.9,11.9,0,0,1,2,1.43,7.48,7.48,0,0,1,1.49,1.85,4.53,4.53,0,0,1,.58,2.29,13.3,13.3,0,0,1-.22,2.15A6.46,6.46,0,0,1,694.16,365Z" transform="translate(-55.84 -225.17)"/><path class="cls-1" d="M707.74,367.45a11.06,11.06,0,0,1-1.32,1.46A18.18,18.18,0,0,1,705,370.1l-1.83-2.83.6-.56a18.81,18.81,0,0,0,2.15-2.41,13.59,13.59,0,0,0,1.58-2.78,14.92,14.92,0,0,0,1.3-6.12,15.5,15.5,0,0,0-2.53-8.28,15.87,15.87,0,0,0-1.57-2.16,10.47,10.47,0,0,0-.93-1l-.56-.52,1.83-2.84a13.73,13.73,0,0,1,1.45,1.27,16,16,0,0,1,1.31,1.49,20.31,20.31,0,0,1,1.12,1.72,18.76,18.76,0,0,1,1,1.9,21.25,21.25,0,0,1,1.6,8.28,24,24,0,0,1-.41,4.44,18.88,18.88,0,0,1-1.23,4.07,12.94,12.94,0,0,1-1,1.94Q708.34,366.64,707.74,367.45Z" transform="translate(-55.84 -225.17)"/><path class="cls-1" d="M745.27,367.34h-11.9v-23.2h3.51v19.92h8.39Z" transform="translate(-55.84 -225.17)"/><path class="cls-1" d="M763.44,347.39h-5.63v19.95h-3.55V347.39h-5.63v-3.25h14.81Z" transform="translate(-55.84 -225.17)"/><path class="cls-1" d="M786.05,360.7a6.47,6.47,0,0,1-1.79,5,6.88,6.88,0,0,1-4.89,1.68h-9v-23.2h9q3.54,0,5.19,1.86a7.06,7.06,0,0,1,1.49,4.82ZM774,347.39V364.1H778a4.4,4.4,0,0,0,3.32-1.25,4.57,4.57,0,0,0,1.19-3.27v-7.64a4.54,4.54,0,0,0-1.19-3.4,4.59,4.59,0,0,0-3.32-1.15Z" transform="translate(-55.84 -225.17)"/></svg>